<?xml version="1.0" standalone="no"?>
<!DOCTYPE svg PUBLIC "-//W3C//DTD SVG 20010904//EN"
 "http://www.w3.org/TR/2001/REC-SVG-20010904/DTD/svg10.dtd">
<svg version="1.0" xmlns="http://www.w3.org/2000/svg"
 width="285.000000pt" height="285.000000pt" viewBox="0 0 285.000000 285.000000"
 preserveAspectRatio="xMidYMid meet">
<metadata>
Created by potrace 1.11, written by Peter Selinger 2001-2013
</metadata>
<g transform="translate(0.000000,285.000000) scale(0.100000,-0.100000)"
fill="#000000" stroke="none">
<path d="M1319 2846 c-2 -2 -22 -6 -44 -9 -22 -2 -67 -12 -100 -20 -337 -90
-602 -356 -692 -695 -36 -136 -38 -308 -4 -437 82 -315 378 -875 778 -1472 69
-103 133 -193 142 -199 16 -13 61 1 61 18 0 5 16 16 35 23 23 10 48 36 77 77
53 78 184 286 240 381 24 40 47 80 53 89 233 387 432 808 500 1058 133 485
-172 1006 -675 1153 -30 9 -71 19 -90 22 -44 7 -275 17 -281 11z"/>
</g>
</svg>
